<svg xmlns="http://www.w3.org/2000/svg" width="128" height="128" viewBox="0 0 128 128"><g stroke="#684d36" stroke-width="3" stroke-linecap="round" stroke-linejoin="round"><circle cx="64" cy="65" r="54" fill="#e8c776" stroke="#8ca366" stroke-dasharray="3 5"/><path d="M60 103V30" fill="none"/><path d="M60 77Q33 74 36 58Q59 58 60 77M61 64Q87 63 87 46Q64 44 61 64M60 49Q36 44 42 29Q61 32 60 49M61 33Q62 13 73 15Q85 26 61 33" fill="#e7bb5e"/><path d="m101 11 2 8 8 2-8 3-2 8-3-8-8-3 8-2Z" fill="#f0c869" stroke-width="2"/></g></svg>